<svg xmlns="http://www.w3.org/2000/svg" version="1.1" xmlns:xlink="http://www.w3.org/1999/xlink" xmlns:svgjs="http://svgjs.dev/svgjs" width="1500" height="401" viewBox="0 0 1500 401"><g transform="matrix(1,0,0,1,-0.9084522071641459,0.8944942939279485)"><svg viewBox="0 0 396 106" data-background-color="#3a3d53" preserveAspectRatio="xMidYMid meet" height="401" width="1500" xmlns="http://www.w3.org/2000/svg" xmlns:xlink="http://www.w3.org/1999/xlink"><g id="tight-bounds" transform="matrix(1,0,0,1,0.24008861730862918,-0.23643166266958815)"><svg viewBox="0 0 395.52 106.47252261562997" height="106.47252261562997" width="395.52"><g><svg viewBox="0 0 395.52 106.47252261562997" height="106.47252261562997" width="395.52"><g><svg viewBox="0 0 395.52 106.47252261562997" height="106.47252261562997" width="395.52"><g id="textblocktransform"><svg viewBox="0 0 395.52 106.47252261562997" height="106.47252261562997" width="395.52" id="textblock"><g><svg viewBox="0 0 395.52 106.47252261562997" height="106.47252261562997" width="395.52"><path d="M394.594 22.836C392.735 11.785 387.435 8.712 387.435 8.712 371.165-2.671 350.86-0.218 332.619 1.418 300.414 1.484 268.339 3.916 236.208 5.22 168.767 5.419 100.749 2.147 33.643 10.215 27.339 12.691-6.54 10.701 1.121 24.251 3.129 29.887 10.456 36.143 10.232 41.315 11.236 42.221 12.631 40.143 13.226 41.448 15.309 44.962 18.711 43.304 21.501 45.382 17.614 50.93 20.403 55.55 23.062 60.39 18.377 61.65 12.371 61.053 9.675 65.231 9.396 68.259 7.89 67.685 6.235 67.552 5.026 67.464 2.59 67.795 2.999 68.746 4.394 71.995-1.594 73.874 2.162 77.057-0.422 80.505 3.948 83.489 3.353 87.224 3.278 87.976 3.687 88.617 4.338 88.794 7.22 89.744 3.018 91.601 3.464 93.612 33.029 107.361 65.104 97.856 95.394 104.178 103.259 99.757 97.346 105.747 100.489 104.819 102.943 103.736 104.728 108.223 107.499 105.681 107.927 104.951 107.276 103.227 108.8 103.559 109.6 103.736 110.307 103.691 110.418 102.675 110.586 101.149 109.117 102.1 108.726 101.304 112.947 97.281 111.906 106.852 115.866 106.454 115.68 105.283 114.528 103.603 116.889 103.824 119.232 102.144 119.306 100.752 121.389 104.531 121.463 105.349 121.835 105.924 122.43 106.322 128.938 102.21 135.409 107.781 142.233 105.924 146.417 103.89 150.433 107.029 154.672 106.255 156.16 105.636 157.666 104.531 159.098 106.388 176.632 106.786 195.319 105.128 211.943 106.454 256.364 103.979 303.836 107.471 350.674 104.2 361.719 102.94 373.192 101.149 383.958 99.713 383.958 99.713 392.679 95.778 392.679 78.095S394.538 62.623 394.817 48.543C395.096 34.463 396.398 33.888 394.538 22.836Z" opacity="1" fill="#ffffff" data-fill-palette-color="tertiary"></path><g transform="matrix(1,0,0,1,55.76832,26.230666666666668)"><svg width="283.98335999999995" viewBox="2.45 -39.25 208.98000000000002 39.75" height="54.011189282296634" data-palette-color="#3a3d53"><path d="M15.1 0Q11.2 0 8.35-1.6 5.5-3.2 3.98-5.95 2.45-8.7 2.45-12.15L2.45-12.15Q2.45-15.75 4.03-18.88 5.6-22 8.53-23.85 11.45-25.7 15.35-25.7L15.35-25.7Q19.55-25.7 22.45-23.68 25.35-21.65 26.5-18.7L26.5-18.7Q26.8-18.1 26.8-17.55L26.8-17.55Q26.8-16.4 25.2-15.95L25.2-15.95Q24.6-15.85 24.45-15.85L24.45-15.85Q23.7-15.85 23.2-16.28 22.7-16.7 22.25-17.55L22.25-17.55Q21.45-19.3 19.75-20.53 18.05-21.75 15.65-21.75L15.65-21.75Q13.2-21.75 11.33-20.45 9.45-19.15 8.43-16.95 7.4-14.75 7.4-12.2L7.4-12.2Q7.4-8.55 9.47-6.25 11.55-3.95 15.4-3.95L15.4-3.95Q17.85-3.95 19.55-4.9 21.25-5.85 22.08-7.3 22.9-8.75 23-10.25L23-10.25Q23-10.9 23.53-11.33 24.05-11.75 25-11.75L25-11.75Q26.2-11.75 26.83-11.28 27.45-10.8 27.45-9.6L27.45-9.6Q27.4-7.3 26.03-5.1 24.65-2.9 21.9-1.45 19.15 0 15.1 0L15.1 0ZM54.85-19Q55.5-16.25 55.77-12.08 56.05-7.9 56.05-1.95L56.05-1.95Q56.05-1.15 55.32-0.6 54.6-0.05 53.55-0.05L53.55-0.05Q52.5-0.05 51.8-0.6 51.1-1.15 51.1-2.2L51.1-2.2Q51.1-14.8 50.1-18.35L50.1-18.35Q49.6-20.15 48.6-20.93 47.6-21.7 46.05-21.7L46.05-21.7Q42.6-21.7 40.77-18.93 38.95-16.15 38.95-12.35L38.95-12.35 38.95-1.9Q38.95-1.1 38.25-0.6 37.55-0.1 36.5-0.1L36.5-0.1Q35.4-0.1 34.7-0.63 34-1.15 34-1.95L34-1.95Q34-12.05 34.25-21.3L34.25-21.3Q34.45-28.45 35.05-37.1L35.05-37.1Q35.2-39.25 37.5-39.25L37.5-39.25Q38.6-39.25 39.22-38.78 39.85-38.3 39.8-37.4L39.8-37.4 39.3-27.8 39-22.3Q40.2-23.85 42.15-24.85 44.1-25.85 46.85-25.85L46.85-25.85Q50.15-25.85 52.05-24.18 53.95-22.5 54.85-19L54.85-19ZM66.45-27.55Q64.89-27.55 63.9-28.58 62.9-29.6 62.9-31.15L62.9-31.15Q62.9-32.65 63.92-33.65 64.95-34.65 66.55-34.65L66.55-34.65Q68.15-34.65 69.12-33.7 70.09-32.75 70.09-31.2L70.09-31.2Q70.09-29.65 69.07-28.6 68.05-27.55 66.45-27.55L66.45-27.55ZM65.75-0.3Q64.59-0.3 63.9-0.85 63.2-1.4 63.2-2.4L63.2-2.4 63.7-22.7Q63.7-23.7 64.39-24.28 65.09-24.85 66.2-24.85L66.2-24.85Q67.3-24.85 68.02-24.25 68.75-23.65 68.75-22.65L68.75-22.65 68.25-2.35Q68.2-1.35 67.52-0.83 66.84-0.3 65.75-0.3L65.75-0.3ZM91.59-8.75Q92.74-8.75 93.24-8.25 93.74-7.75 93.74-6.55L93.74-6.55Q93.74-3.7 91.89-1.83 90.04 0.05 87.19 0.05L87.19 0.05Q83.24 0.05 81.49-3.33 79.74-6.7 79.74-13.9L79.74-13.9Q79.74-16.45 79.89-19L79.89-19 77.49-19.15Q75.54-19.25 75.54-21.2L75.54-21.2Q75.54-22.2 76.07-22.68 76.59-23.15 77.79-23.1L77.79-23.1 80.24-22.95Q80.54-26.1 81.39-31.7L81.39-31.7Q81.69-33.5 83.84-33.5L83.84-33.5Q85.09-33.5 85.77-32.85 86.44-32.2 86.34-31.3L86.34-31.3Q85.64-26.95 85.14-22.7L85.14-22.7Q87.84-22.6 88.69-22.6L88.69-22.6Q89.64-22.6 90.09-22.18 90.54-21.75 90.54-20.85L90.54-20.85Q90.54-19.75 90.07-19.33 89.59-18.9 88.34-18.85L88.34-18.85 84.79-18.85Q84.64-16.45 84.64-13.9L84.64-13.9Q84.64-8.85 85.29-6.43 85.94-4 87.59-4L87.59-4Q89.49-4 89.64-6.95L89.64-6.95Q89.64-7.85 90.07-8.3 90.49-8.75 91.59-8.75L91.59-8.75ZM127.84-14.8Q129.14-14.8 129.81-14.18 130.49-13.55 130.49-12.35L130.49-12.35Q130.49-8.9 128.59-6.03 126.69-3.15 123.24-1.5 119.79 0.15 115.34 0.15L115.34 0.15Q110.69 0.15 106.84-1.78 102.99-3.7 100.72-7.5 98.44-11.3 98.44-16.7L98.44-16.7Q98.44-22.1 100.62-26.45 102.79-30.8 106.49-33.23 110.19-35.65 114.59-35.65L114.59-35.65Q117.64-35.65 120.02-34.63 122.39-33.6 123.94-31.85L123.94-31.85 123.94-33.55Q123.94-34.4 124.57-34.93 125.19-35.45 126.29-35.45L126.29-35.45Q127.44-35.45 128.06-34.88 128.69-34.3 128.69-33.15L128.69-33.15 128.69-27.85Q128.69-24.85 126.29-24.85L126.29-24.85Q124.89-24.85 124.09-25.95L124.09-25.95Q122.29-28.35 120.29-29.75 118.29-31.15 115.29-31.15L115.29-31.15Q112.14-31.15 109.42-29.23 106.69-27.3 105.07-23.98 103.44-20.65 103.44-16.6L103.44-16.6Q103.44-12.7 105.14-9.95 106.84-7.2 109.62-5.78 112.39-4.35 115.54-4.35L115.54-4.35Q118.04-4.35 120.32-5.25 122.59-6.15 123.99-7.98 125.39-9.8 125.39-12.4L125.39-12.4Q125.39-13.5 126.04-14.15 126.69-14.8 127.84-14.8L127.84-14.8ZM157.39-19Q158.04-16.25 158.31-12.08 158.59-7.9 158.59-1.95L158.59-1.95Q158.59-1.15 157.86-0.6 157.14-0.05 156.09-0.05L156.09-0.05Q155.04-0.05 154.34-0.6 153.64-1.15 153.64-2.2L153.64-2.2Q153.64-14.8 152.64-18.35L152.64-18.35Q152.14-20.15 151.14-20.93 150.14-21.7 148.59-21.7L148.59-21.7Q145.14-21.7 143.31-18.93 141.49-16.15 141.49-12.35L141.49-12.35 141.49-1.9Q141.49-1.1 140.79-0.6 140.09-0.1 139.04-0.1L139.04-0.1Q137.94-0.1 137.24-0.63 136.54-1.15 136.54-1.95L136.54-1.95Q136.54-12.05 136.79-21.3L136.79-21.3Q136.99-28.45 137.59-37.1L137.59-37.1Q137.74-39.25 140.04-39.25L140.04-39.25Q141.14-39.25 141.76-38.78 142.39-38.3 142.34-37.4L142.34-37.4 141.84-27.8 141.54-22.3Q142.74-23.85 144.69-24.85 146.64-25.85 149.39-25.85L149.39-25.85Q152.69-25.85 154.59-24.18 156.49-22.5 157.39-19L157.39-19ZM187.34-4Q188.09-3.9 188.51-3.5 188.94-3.1 188.94-2.15L188.94-2.15Q188.94-1.25 188.49-0.65 188.04-0.05 187.24-0.05L187.24-0.05Q185.19-0.05 184.16-0.65 183.14-1.25 182.29-2.9L182.29-2.9Q180.19 0.5 174.49 0.5L174.49 0.5Q168.69 0.5 165.94-3.03 163.19-6.55 163.19-11.8L163.19-11.8Q163.19-15.3 164.59-18.25 165.99-21.2 168.69-22.95 171.39-24.7 174.99-24.7L174.99-24.7Q177.28-24.7 179.06-23.8 180.84-22.9 181.74-21.35L181.74-21.35 181.89-22.6Q182.09-24.4 184.04-24.4L184.04-24.4Q185.34-24.4 185.89-23.83 186.44-23.25 186.34-22.4L186.34-22.4Q185.84-18.65 185.74-16.75L185.74-16.75Q185.59-14.95 185.59-12.05L185.59-12.05 185.59-8.75Q185.59-6.15 185.86-5.15 186.14-4.15 187.34-4L187.34-4ZM180.69-8.75Q180.74-11 180.74-14.9L180.74-14.9Q180.74-16.95 179.86-18.25 178.99-19.55 177.71-20.15 176.44-20.75 175.14-20.75L175.14-20.75Q172.89-20.75 171.31-19.43 169.74-18.1 168.96-16.05 168.19-14 168.19-11.8L168.19-11.8Q168.19-8.45 169.76-5.98 171.34-3.5 174.69-3.5L174.69-3.5Q177.34-3.5 178.99-4.85 180.64-6.2 180.69-8.75L180.69-8.75ZM209.28-8.75Q210.43-8.75 210.93-8.25 211.43-7.75 211.43-6.55L211.43-6.55Q211.43-3.7 209.58-1.83 207.73 0.05 204.88 0.05L204.88 0.05Q200.93 0.05 199.18-3.33 197.43-6.7 197.43-13.9L197.43-13.9Q197.43-16.45 197.58-19L197.58-19 195.18-19.15Q193.23-19.25 193.23-21.2L193.23-21.2Q193.23-22.2 193.76-22.68 194.28-23.15 195.48-23.1L195.48-23.1 197.93-22.95Q198.23-26.1 199.08-31.7L199.08-31.7Q199.38-33.5 201.53-33.5L201.53-33.5Q202.78-33.5 203.46-32.85 204.13-32.2 204.03-31.3L204.03-31.3Q203.33-26.95 202.83-22.7L202.83-22.7Q205.53-22.6 206.38-22.6L206.38-22.6Q207.33-22.6 207.78-22.18 208.23-21.75 208.23-20.85L208.23-20.85Q208.23-19.75 207.76-19.33 207.28-18.9 206.03-18.85L206.03-18.85 202.48-18.85Q202.33-16.45 202.33-13.9L202.33-13.9Q202.33-8.85 202.98-6.43 203.63-4 205.28-4L205.28-4Q207.18-4 207.33-6.95L207.33-6.95Q207.33-7.85 207.76-8.3 208.18-8.75 209.28-8.75L209.28-8.75Z" opacity="1" transform="matrix(1,0,0,1,0,0)" fill="#3a3d53" class="wordmark-text-0" data-fill-palette-color="quaternary" id="text-0"></path></svg></g></svg></g></svg></g></svg></g><g></g></svg></g><defs></defs></svg><rect width="395.52" height="106.47252261562997" fill="none" stroke="none" visibility="hidden"></rect></g></svg></g></svg>